<svg width="538" height="96" viewBox="0 0 538 96" fill="none" xmlns="http://www.w3.org/2000/svg">
<path d="M84.3576 91.7243C84.3576 94.0857 82.4407 96 80.0761 96H74.4567C74.2408 96 74.0286 95.9838 73.8212 95.953C73.6139 95.9838 73.4017 96 73.1857 96H4.28143C1.91686 96 0 94.0857 0 91.7243V86.2461C0 83.8847 1.91686 81.9705 4.28143 81.9705H31.6424V58.2293C31.6424 55.4733 33.8766 53.2391 36.6326 53.2391H40.8345C43.5905 53.2391 45.8247 55.4733 45.8247 58.2293V81.9705H70.1753V58.2293C70.1753 55.4733 72.4095 53.2391 75.1655 53.2391H79.3674C82.1234 53.2391 84.3576 55.4733 84.3576 58.2293V91.7243Z" fill="#E2711D"/>
<path d="M41.5433 1C41.7592 1 41.9715 1.01513 42.1788 1.04593C42.3861 1.01513 42.5984 1 42.8143 1H111.719C114.083 1 116 2.91428 116 5.27567V10.7539C116 13.1153 114.083 15.0295 111.719 15.0295H84.3576V37.8354C84.3576 40.5914 82.1234 42.8256 79.3674 42.8256H75.1655C72.4095 42.8256 70.1753 40.5914 70.1753 37.8354V15.0295H45.8247V37.8354C45.8247 40.5914 43.5905 42.8256 40.8345 42.8256H36.6326C33.8766 42.8256 31.6424 40.5914 31.6424 37.8354V5.27567C31.6424 2.91428 33.5593 1 35.9239 1H41.5433Z" fill="#E2711D"/>
<path d="M321.562 31.3751C321.562 35.0834 321.104 38.3959 320.188 41.3126C319.271 44.2292 318.021 46.8126 316.438 49.0626C314.896 51.2709 313.104 53.1667 311.062 54.7501C309.021 56.3334 306.875 57.6459 304.625 58.6876C302.417 59.6876 300.167 60.4167 297.875 60.8751C295.625 61.3334 293.5 61.5626 291.5 61.5626L325.438 90.8751H300.312L266.438 61.5626H258.75C256.541 61.5626 254.75 59.7717 254.75 57.5626V49.3126C254.75 47.1034 256.541 45.3126 258.75 45.3126H291.5C293.542 45.1459 295.396 44.7292 297.062 44.0626C298.771 43.3542 300.229 42.4167 301.438 41.2501C302.688 40.0834 303.646 38.6876 304.312 37.0626C304.979 35.3959 305.312 33.5001 305.312 31.3751V21.1251C305.312 20.2084 305.188 19.5209 304.938 19.0626C304.729 18.5626 304.438 18.2084 304.062 18.0001C303.729 17.7501 303.354 17.6042 302.938 17.5626C302.562 17.5209 302.208 17.5001 301.875 17.5001H248.25V90.8751H232V9.43758C232 8.31258 232.208 7.25008 232.625 6.25008C233.042 5.25008 233.604 4.37508 234.312 3.62508C235.062 2.87508 235.938 2.29175 236.938 1.87508C237.938 1.45841 239.021 1.25008 240.188 1.25008H301.875C305.5 1.25008 308.562 1.91675 311.062 3.25008C313.562 4.54175 315.583 6.18758 317.125 8.18758C318.708 10.1459 319.833 12.2709 320.5 14.5626C321.208 16.8542 321.562 19.0001 321.562 21.0001V31.3751Z" fill="#92400E"/>
<path d="M184.125 91.6251H167.875V57.0001C167.875 54.7909 169.666 53.0001 171.875 53.0001H180.125C182.334 53.0001 184.125 54.7909 184.125 57.0001V91.6251Z" fill="#92400E"/>
<path d="M219.938 14.2501C219.938 16.4592 218.147 18.2501 215.938 18.2501H184.125V39.0001C184.125 41.2092 182.334 43.0001 180.125 43.0001H171.875C169.666 43.0001 167.875 41.2092 167.875 39.0001V18.2501H136C133.791 18.2501 132 16.4592 132 14.2501V6.00008C132 3.79094 133.791 2.00008 136 2.00008H215.938C218.147 2.00008 219.938 3.79094 219.938 6.00008V14.2501Z" fill="#92400E"/>
<path d="M353.312 54.6251C353.312 57.8334 353.812 60.7501 354.812 63.3751C355.854 65.9584 357.312 68.1876 359.188 70.0626C361.062 71.8959 363.292 73.3334 365.875 74.3751C368.5 75.3751 371.396 75.8751 374.562 75.8751H396.438C399.604 75.8751 402.479 75.3751 405.062 74.3751C407.688 73.3334 409.938 71.8959 411.812 70.0626C413.688 68.1876 415.125 65.9584 416.125 63.3751C417.167 60.7501 417.688 57.8334 417.688 54.6251C417.688 53.7276 418.415 53.0001 419.312 53.0001H432.312C433.21 53.0001 433.938 53.7276 433.938 54.6251C433.938 60.0834 433 65.1042 431.125 69.6876C429.25 74.2709 426.646 78.2292 423.312 81.5626C419.979 84.8959 416.021 87.5001 411.438 89.3751C406.896 91.2084 401.938 92.1251 396.562 92.1251H374.562C369.188 92.1251 364.208 91.2084 359.625 89.3751C355.042 87.5001 351.083 84.8959 347.75 81.5626C344.417 78.2292 341.792 74.2709 339.875 69.6876C338 65.1042 337.062 60.0834 337.062 54.6251C337.062 53.7276 337.79 53.0001 338.688 53.0001H351.688C352.585 53.0001 353.312 53.7276 353.312 54.6251Z" fill="#92400E"/>
<path d="M396.562 7.91065e-05C401.938 7.91065e-05 406.896 0.937579 411.438 2.81258C416.021 4.68758 419.979 7.29175 423.312 10.6251C426.646 13.9167 429.25 17.8751 431.125 22.5001C433 27.0834 433.938 32.0834 433.938 37.5001V39.0001C433.938 41.2092 432.147 43.0001 429.938 43.0001H421.688C419.478 43.0001 417.688 41.2092 417.688 39.0001V37.5001C417.688 34.2917 417.167 31.3959 416.125 28.8126C415.125 26.1876 413.688 23.9584 411.812 22.1251C409.979 20.2501 407.75 18.8126 405.125 17.8126C402.542 16.7709 399.688 16.2501 396.562 16.2501H374.562C371.396 16.2501 368.5 16.7709 365.875 17.8126C363.292 18.8126 361.062 20.2501 359.188 22.1251C357.312 23.9584 355.854 26.1876 354.812 28.8126C353.812 31.3959 353.312 34.2917 353.312 37.5001V39.0001C353.312 41.2092 351.522 43.0001 349.312 43.0001H341.062C338.853 43.0001 337.062 41.2092 337.062 39.0001V37.5001C337.062 32.0834 338 27.0834 339.875 22.5001C341.792 17.8751 344.417 13.9167 347.75 10.6251C351.083 7.29175 355.042 4.68758 359.625 2.81258C364.208 0.937579 369.188 7.91065e-05 374.562 7.91065e-05H396.562Z" fill="#92400E"/>
<path d="M453 0.611407C454.542 -0.0135805 456.125 -0.15942 457.75 0.173907C459.375 0.46557 460.771 1.2156 461.938 2.42391L509.454 51.9913L509.399 52.045L515.423 58.2179L521.312 64.3614V64.253L537.562 80.9053V83.9239C537.562 85.0905 537.333 86.1739 536.875 87.1739C536.458 88.1739 535.875 89.0489 535.125 89.7989C534.417 90.5072 533.562 91.0697 532.562 91.4864C531.562 91.9031 530.5 92.1114 529.375 92.1114C528.375 92.1114 527.354 91.9239 526.312 91.5489C525.312 91.1739 524.417 90.5697 523.625 89.7364L464.25 27.7364V90.8614H448V8.17391C448 6.50727 448.458 5.00722 449.375 3.67391C450.333 2.29894 451.542 1.27806 453 0.611407Z" fill="#92400E"/>
<path d="M533.562 1.23641C535.772 1.23641 537.562 3.02727 537.562 5.23641V56.7598C537.562 60.347 533.205 62.1202 530.699 59.5528L522.449 51.0987C521.72 50.3517 521.313 49.3494 521.312 48.3057V5.23641C521.312 3.02727 523.103 1.23641 525.312 1.23641H533.562Z" fill="#92400E"/>
</svg>
